<svg width="25" height="24" viewBox="0 0 25 24" fill="none" xmlns="http://www.w3.org/2000/svg">
<g opacity="0.5">
<path d="M7.59375 5C7.59375 5.26522 7.69911 5.51957 7.88664 5.70711C8.07418 5.89464 8.32853 6 8.59375 6C8.85897 6 9.11332 5.89464 9.30086 5.70711C9.48839 5.51957 9.59375 5.26522 9.59375 5C9.59375 4.73478 9.48839 4.48043 9.30086 4.29289C9.11332 4.10536 8.85897 4 8.59375 4C8.32853 4 8.07418 4.10536 7.88664 4.29289C7.69911 4.48043 7.59375 4.73478 7.59375 5ZM14.5938 5C14.5938 5.26522 14.6991 5.51957 14.8866 5.70711C15.0742 5.89464 15.3285 6 15.5938 6C15.859 6 16.1133 5.89464 16.3009 5.70711C16.4884 5.51957 16.5938 5.26522 16.5938 5C16.5938 4.73478 16.4884 4.48043 16.3009 4.29289C16.1133 4.10536 15.859 4 15.5938 4C15.3285 4 15.0742 4.10536 14.8866 4.29289C14.6991 4.48043 14.5938 4.73478 14.5938 5ZM7.59375 12C7.59375 12.2652 7.69911 12.5196 7.88664 12.7071C8.07418 12.8946 8.32853 13 8.59375 13C8.85897 13 9.11332 12.8946 9.30086 12.7071C9.48839 12.5196 9.59375 12.2652 9.59375 12C9.59375 11.7348 9.48839 11.4804 9.30086 11.2929C9.11332 11.1054 8.85897 11 8.59375 11C8.32853 11 8.07418 11.1054 7.88664 11.2929C7.69911 11.4804 7.59375 11.7348 7.59375 12ZM14.5938 12C14.5938 12.2652 14.6991 12.5196 14.8866 12.7071C15.0742 12.8946 15.3285 13 15.5938 13C15.859 13 16.1133 12.8946 16.3009 12.7071C16.4884 12.5196 16.5938 12.2652 16.5938 12C16.5938 11.7348 16.4884 11.4804 16.3009 11.2929C16.1133 11.1054 15.859 11 15.5938 11C15.3285 11 15.0742 11.1054 14.8866 11.2929C14.6991 11.4804 14.5938 11.7348 14.5938 12ZM7.59375 19C7.59375 19.2652 7.69911 19.5196 7.88664 19.7071C8.07418 19.8946 8.32853 20 8.59375 20C8.85897 20 9.11332 19.8946 9.30086 19.7071C9.48839 19.5196 9.59375 19.2652 9.59375 19C9.59375 18.7348 9.48839 18.4804 9.30086 18.2929C9.11332 18.1054 8.85897 18 8.59375 18C8.32853 18 8.07418 18.1054 7.88664 18.2929C7.69911 18.4804 7.59375 18.7348 7.59375 19ZM14.5938 19C14.5938 19.2652 14.6991 19.5196 14.8866 19.7071C15.0742 19.8946 15.3285 20 15.5938 20C15.859 20 16.1133 19.8946 16.3009 19.7071C16.4884 19.5196 16.5938 19.2652 16.5938 19C16.5938 18.7348 16.4884 18.4804 16.3009 18.2929C16.1133 18.1054 15.859 18 15.5938 18C15.3285 18 15.0742 18.1054 14.8866 18.2929C14.6991 18.4804 14.5938 18.7348 14.5938 19Z" stroke="#828282" stroke-width="2" stroke-linecap="round" stroke-linejoin="round"/>
</g>
</svg>
