<svg width="24" height="24" viewBox="0 0 24 24" fill="none" xmlns="http://www.w3.org/2000/svg">
<path d="M13.7778 8.5V6.75C13.7778 6.28587 13.5905 5.84075 13.2571 5.51256C12.9237 5.18437 12.4715 5 12 5H5.77778C5.30628 5 4.8541 5.18437 4.5207 5.51256C4.1873 5.84075 4 6.28587 4 6.75V17.25C4 17.7141 4.1873 18.1592 4.5207 18.4874C4.8541 18.8156 5.30628 19 5.77778 19H12C12.4715 19 12.9237 18.8156 13.2571 18.4874C13.5905 18.1592 13.7778 17.7141 13.7778 17.25V15.5" stroke="#221D52" stroke-width="1.4" stroke-linecap="round" stroke-linejoin="round"/>
<path d="M9.33337 12H20M20 12L17.3334 9.375M20 12L17.3334 14.625" stroke="#221D52" stroke-width="1.4" stroke-linecap="round" stroke-linejoin="round"/>
</svg>
