<svg width="24" height="24" viewBox="0 0 24 24" fill="none" xmlns="http://www.w3.org/2000/svg">
<path d="M22.0015 15.0002L16.0015 9.00024M22.0015 9.00024L16.0015 15.0002" stroke="#828282" stroke-width="1.5" stroke-linecap="round"/>
<path d="M2.00098 14.9593V9.04032C2.00098 8.46632 2.44898 8.00032 3.00098 8.00032H6.58698C6.71931 7.99985 6.85018 7.97258 6.97169 7.92016C7.0932 7.86774 7.20283 7.79126 7.29398 7.69532L10.294 4.30732C10.924 3.65132 12.001 4.11632 12.001 5.04332V18.9573C12.001 19.8913 10.911 20.3523 10.285 19.6833L7.29498 16.3143C7.20357 16.2156 7.09283 16.1368 6.96965 16.0828C6.84646 16.0288 6.71348 16.0007 6.57898 16.0003H3.00098C2.44898 16.0003 2.00098 15.5343 2.00098 14.9593Z" stroke="#828282" stroke-width="1.68" stroke-linecap="round" stroke-linejoin="round"/>
</svg>
