<svg width="516" height="224" viewBox="0 0 516 224" fill="none" xmlns="http://www.w3.org/2000/svg">
<path d="M156.458 39.1888C145.688 39.1888 136.957 30.4477 136.957 19.665C136.957 8.88231 145.688 0.14122 156.458 0.14122C167.228 0.14122 175.959 8.88231 175.959 19.665C175.959 30.4477 167.228 39.1888 156.458 39.1888Z" fill="#7062F3"/>
<path d="M122.532 4.75133C131.877 3.49915 142.546 8.50632 144.969 17.5408C145.579 15.9345 146.689 14.5621 148.137 13.6219C149.586 12.6817 151.299 12.2225 153.028 12.3104C154.758 12.3984 156.414 13.029 157.758 14.1113C159.102 15.1935 160.065 16.6713 160.506 18.3311L159.436 19.0907C139.409 23.3838 118.678 23.2909 98.6912 18.8185C105.192 12.0463 113.186 6.00348 122.532 4.75133Z" fill="#F0F0F0"/>
<path d="M162.27 29.809C171.615 28.5047 182.285 33.7205 184.707 43.1314C185.317 41.4581 186.427 40.0286 187.876 39.0492C189.325 38.0699 191.037 37.5915 192.767 37.6831C194.496 37.7747 196.152 38.4317 197.496 39.559C198.841 40.6863 199.803 42.2257 200.244 43.9547L199.174 44.7459C179.147 49.2178 158.416 49.121 138.43 44.4623C144.93 37.4079 152.925 31.1134 162.27 29.809Z" fill="#F0F0F0"/>
<path d="M115.045 81.562C124.391 80.2576 135.06 85.4734 137.482 94.8843C138.093 93.2111 139.202 91.7815 140.651 90.8022C142.1 89.8228 143.813 89.3444 145.542 89.436C147.271 89.5277 148.928 90.1846 150.272 91.3119C151.616 92.4393 152.578 93.9786 153.02 95.7076L151.95 96.4989C131.923 100.971 111.192 100.874 91.2049 96.2153C97.7055 89.1609 105.7 82.8663 115.045 81.562Z" fill="#F0F0F0"/>
<path d="M201.632 47.6677C201.665 47.6679 201.698 47.6589 201.73 47.6411C287.973 0.19053 363.983 6.39553 412.562 19.9566C419.173 21.8014 425.802 23.9322 432.264 26.2902C433.914 26.8914 435.626 27.5359 437.352 28.207C439.413 29.0056 441.446 29.828 443.396 30.6504C444.239 30.9973 445.064 31.3469 445.874 31.6994C447.099 32.2258 448.343 32.7745 449.677 33.3774C451.167 34.0457 452.68 34.7467 454.177 35.4611C454.183 35.4644 454.188 35.4672 454.194 35.4694L454.194 35.4699C455.884 36.2729 457.566 37.0992 459.192 37.9244C460.072 38.3666 460.922 38.8027 461.736 39.2333C461.827 39.2771 461.907 39.3192 461.989 39.3624L462.164 39.455C462.265 39.5087 462.365 39.5614 462.465 39.6112L462.471 39.6146L462.471 39.6151L462.736 39.7581C463.052 39.9244 463.36 40.0868 463.663 40.2486C471.668 44.5423 476.07 47.5968 476.113 47.6268C476.153 47.6545 476.195 47.6683 476.238 47.6675C476.281 47.6666 476.323 47.6511 476.363 47.6218C476.402 47.5925 476.438 47.55 476.468 47.4967C476.498 47.4434 476.521 47.3803 476.537 47.3112C476.553 47.242 476.561 47.168 476.561 47.0935C476.56 47.019 476.551 46.9454 476.534 46.8769C476.517 46.8083 476.493 46.7463 476.462 46.6942C476.432 46.6421 476.395 46.601 476.356 46.5733C476.312 46.5434 471.889 43.4733 463.854 39.1635C463.55 39.0011 463.241 38.8388 462.925 38.672L462.679 38.539C462.67 38.5334 462.662 38.529 462.653 38.5246C462.554 38.4752 462.454 38.4226 462.354 38.3694L462.178 38.2768C462.091 38.2309 462.005 38.1854 461.917 38.1433C461.109 37.7155 460.256 37.2782 459.374 36.8343C457.747 36.0086 456.064 35.1824 454.372 34.3783C454.367 34.3749 454.361 34.3727 454.356 34.37C452.854 33.6534 451.335 32.9491 449.84 32.2785C448.505 31.675 447.258 31.1253 446.03 30.5977C445.218 30.2458 444.39 29.8954 443.549 29.5465C441.596 28.723 439.558 27.8995 437.494 27.0993C435.765 26.4276 434.051 25.7815 432.398 25.1796C425.926 22.8178 419.287 20.6837 412.666 18.8361C364.017 5.25563 287.898 -0.959381 201.534 46.5594C201.459 46.6002 201.396 46.6858 201.355 46.8009C201.314 46.916 201.298 47.0528 201.31 47.1867C201.321 47.3207 201.36 47.4428 201.42 47.531C201.479 47.6192 201.554 47.6677 201.632 47.6677Z" fill="#CCCCCC"/>
<path d="M509.642 223.544H58.9445C58.7836 223.544 58.6293 223.498 58.5156 223.417C58.4018 223.335 58.3379 223.224 58.3379 223.109C58.3379 222.993 58.4018 222.883 58.5156 222.801C58.6293 222.719 58.7836 222.674 58.9445 222.674H509.642C509.803 222.674 509.957 222.719 510.071 222.801C510.185 222.883 510.249 222.993 510.249 223.109C510.249 223.224 510.185 223.335 510.071 223.417C509.957 223.498 509.803 223.544 509.642 223.544Z" fill="#E6E6E6"/>
<path d="M315.223 138.424C315.223 117.609 332.055 68.2142 352.82 68.2142C373.584 68.2142 390.416 117.609 390.416 138.424C390.388 148.402 386.414 157.96 379.367 165.005C372.319 172.05 362.772 176.006 352.82 176.006C342.867 176.006 333.32 172.05 326.273 165.005C319.225 157.96 315.251 148.402 315.223 138.424Z" fill="#E5E5E5"/>
<path d="M352.819 223.543C352.737 223.543 352.658 223.512 352.6 223.456C352.542 223.401 352.51 223.326 352.51 223.248V99.8514C352.51 99.7734 352.542 99.6985 352.6 99.6433C352.658 99.5881 352.737 99.5571 352.819 99.5571C352.901 99.5571 352.98 99.5881 353.038 99.6433C353.095 99.6985 353.128 99.7734 353.128 99.8514V223.248C353.128 223.326 353.095 223.401 353.038 223.456C352.98 223.512 352.901 223.543 352.819 223.543Z" fill="#CCCCCC"/>
<path d="M352.819 124.953C352.737 124.953 352.658 124.92 352.601 124.862L337.72 109.944C337.663 109.886 337.632 109.808 337.633 109.726C337.634 109.645 337.666 109.567 337.723 109.51C337.781 109.453 337.858 109.42 337.939 109.419C338.02 109.419 338.098 109.45 338.157 109.506L353.038 124.424C353.081 124.467 353.11 124.522 353.122 124.582C353.134 124.643 353.128 124.705 353.105 124.761C353.081 124.818 353.042 124.866 352.991 124.901C352.94 124.935 352.88 124.953 352.819 124.953Z" fill="#CCCCCC"/>
<path d="M352.819 150.778C352.758 150.778 352.698 150.76 352.647 150.726C352.596 150.692 352.557 150.644 352.533 150.587C352.51 150.53 352.504 150.468 352.516 150.408C352.528 150.348 352.557 150.293 352.6 150.249L377.521 125.267C377.549 125.238 377.583 125.214 377.62 125.198C377.657 125.182 377.697 125.173 377.738 125.172C377.779 125.171 377.819 125.179 377.857 125.194C377.894 125.209 377.929 125.231 377.958 125.259C377.987 125.287 378.011 125.321 378.027 125.359C378.043 125.396 378.052 125.436 378.053 125.477C378.053 125.518 378.046 125.558 378.031 125.596C378.016 125.634 377.994 125.668 377.966 125.698L377.958 125.705L353.037 150.688C352.979 150.746 352.901 150.779 352.819 150.779V150.778Z" fill="#CCCCCC"/>
<path d="M363.412 204.678C363.412 199.346 367.727 186.692 373.05 186.692C378.372 186.692 382.687 199.345 382.687 204.678C382.687 207.24 381.672 209.698 379.864 211.51C378.057 213.322 375.606 214.34 373.05 214.34C370.494 214.34 368.042 213.322 366.235 211.51C364.427 209.698 363.412 207.24 363.412 204.678Z" fill="#7062F3"/>
<path d="M373.05 223.239C373.029 223.239 373.009 223.232 372.994 223.219C372.979 223.207 372.971 223.19 372.971 223.172V194.789C372.971 194.78 372.973 194.771 372.977 194.763C372.981 194.754 372.987 194.747 372.994 194.741C373.001 194.734 373.01 194.729 373.02 194.726C373.029 194.723 373.04 194.721 373.05 194.721C373.06 194.721 373.071 194.723 373.08 194.726C373.09 194.729 373.099 194.734 373.106 194.741C373.113 194.747 373.119 194.754 373.123 194.763C373.127 194.771 373.129 194.78 373.129 194.789V223.172C373.129 223.19 373.121 223.207 373.106 223.219C373.091 223.232 373.071 223.239 373.05 223.239Z" fill="#E6E6E6"/>
<path d="M373.05 201.225C373.039 201.225 373.029 201.223 373.019 201.219C373.01 201.215 373.001 201.209 372.994 201.201L369.179 197.381C369.164 197.366 369.156 197.346 369.156 197.325C369.156 197.304 369.165 197.284 369.18 197.269C369.194 197.254 369.214 197.246 369.235 197.246C369.256 197.246 369.276 197.254 369.291 197.269L373.106 201.089C373.117 201.1 373.125 201.114 373.128 201.13C373.131 201.145 373.129 201.161 373.123 201.176C373.117 201.19 373.107 201.202 373.094 201.211C373.081 201.22 373.065 201.225 373.05 201.225Z" fill="#E6E6E6"/>
<path d="M373.05 207.842C373.034 207.842 373.019 207.838 373.006 207.829C372.993 207.82 372.983 207.808 372.977 207.793C372.971 207.779 372.969 207.763 372.972 207.747C372.975 207.732 372.983 207.718 372.994 207.707L379.382 201.307C379.397 201.292 379.417 201.284 379.438 201.284C379.459 201.284 379.479 201.292 379.494 201.307C379.509 201.322 379.517 201.342 379.517 201.363C379.518 201.384 379.509 201.404 379.494 201.419L373.106 207.819C373.098 207.826 373.09 207.832 373.08 207.836C373.071 207.84 373.06 207.842 373.05 207.842Z" fill="#E6E6E6"/>
<rect x="211.986" y="36.1617" width="95.3121" height="152.865" fill="#E5E5E5"/>
<path d="M272.417 189.027H201.27C201.18 189.028 201.09 189.021 201.002 189.006L234.652 131.848C234.857 131.492 235.155 131.196 235.516 130.99C235.876 130.784 236.285 130.675 236.703 130.675C237.12 130.675 237.529 130.784 237.889 130.99C238.25 131.196 238.548 131.492 238.753 131.848L261.338 170.202L262.419 172.038L272.417 189.027Z" fill="#CFCFCF"/>
<path opacity="0.2" d="M271.559 186.56H254.25L263.342 173.823L271.559 186.56Z" fill="black"/>
<path d="M317.161 189.027H255.537L267.479 171.874L268.338 170.638L283.899 148.286C284.174 147.944 284.519 147.664 284.911 147.463C285.302 147.262 285.733 147.144 286.174 147.118C286.614 147.092 287.056 147.158 287.469 147.311C287.882 147.465 288.259 147.703 288.573 148.01C288.653 148.097 288.728 148.189 288.797 148.286L317.161 189.027Z" fill="#CFCFCF"/>
<path d="M0 183.456V153.037L90.443 23.6193H135.526V149.719H159.866V183.456H135.526V222.723H96.8044V183.456H0ZM99.2937 65.0993L42.5939 149.719H99.2937V65.0993Z" fill="#9B9B9B"/>
<path d="M181.752 119.3C181.752 87.4063 187.469 62.4261 198.901 44.3593C210.517 26.2924 229.694 17.259 256.43 17.259C283.167 17.259 302.251 26.2924 313.683 44.3593C325.3 62.4261 331.108 87.4063 331.108 119.3C331.108 151.378 325.3 176.542 313.683 194.793C302.251 213.045 283.167 222.17 256.43 222.17C229.694 222.17 210.517 213.045 198.901 194.793C187.469 176.542 181.752 151.378 181.752 119.3ZM292.939 119.3C292.939 105.658 292.017 94.2275 290.173 85.0097C288.514 75.6076 285.01 67.9568 279.663 62.0574C274.5 56.158 266.756 53.2083 256.43 53.2083C246.104 53.2083 238.268 56.158 232.92 62.0574C227.758 67.9568 224.254 75.6076 222.41 85.0097C220.751 94.2275 219.921 105.658 219.921 119.3C219.921 133.311 220.751 145.11 222.41 154.696C224.07 164.098 227.573 171.749 232.92 177.648C238.268 183.363 246.104 186.221 256.43 186.221C266.756 186.221 274.592 183.363 279.94 177.648C285.287 171.749 288.79 164.098 290.45 154.696C292.109 145.11 292.939 133.311 292.939 119.3Z" fill="#9B9B9B"/>
<path d="M356.134 183.456V153.037L446.577 23.6193H491.661V149.719H516V183.456H491.661V222.723H452.939V183.456H356.134ZM455.428 65.0993L398.728 149.719H455.428V65.0993Z" fill="#9B9B9B"/>
<path d="M258.933 129.971C263.276 129.971 266.796 126.449 266.796 122.104C266.796 117.76 263.276 114.238 258.933 114.238C254.591 114.238 251.07 117.76 251.07 122.104C251.07 126.449 254.591 129.971 258.933 129.971Z" fill="#221D52"/>
<path d="M263.018 121.963L256.75 118.343C256.725 118.329 256.697 118.321 256.669 118.321C256.64 118.321 256.612 118.329 256.587 118.343C256.562 118.358 256.542 118.378 256.528 118.403C256.513 118.428 256.506 118.456 256.506 118.484V125.725C256.506 125.753 256.513 125.781 256.528 125.806C256.542 125.831 256.562 125.851 256.587 125.866C256.612 125.88 256.64 125.887 256.669 125.887C256.697 125.887 256.725 125.88 256.75 125.866L263.018 122.245C263.042 122.231 263.063 122.211 263.077 122.186C263.091 122.161 263.099 122.133 263.099 122.104C263.099 122.076 263.091 122.048 263.077 122.023C263.063 121.998 263.042 121.978 263.018 121.963L256.75 118.343C256.725 118.329 256.697 118.321 256.669 118.321C256.64 118.321 256.612 118.329 256.587 118.343C256.562 118.358 256.542 118.378 256.528 118.403C256.513 118.428 256.506 118.456 256.506 118.484V125.725C256.506 125.753 256.513 125.781 256.528 125.806C256.542 125.831 256.562 125.851 256.587 125.866C256.612 125.88 256.64 125.887 256.669 125.887C256.697 125.887 256.725 125.88 256.75 125.866L263.018 122.245C263.042 122.231 263.063 122.211 263.077 122.186C263.091 122.161 263.099 122.133 263.099 122.104C263.099 122.076 263.091 122.048 263.077 122.023C263.063 121.998 263.042 121.978 263.018 121.963Z" fill="white"/>
</svg>
