<svg width="24" height="24" viewBox="0 0 24 24" fill="none" xmlns="http://www.w3.org/2000/svg">
<path d="M16.001 8.50035C17.334 10.2783 17.334 13.7223 16.001 15.5003M19.001 5.00035C22.989 8.80835 23.013 15.2173 19.001 19.0003M2.00098 14.9593V9.04035C2.00098 8.46635 2.44898 8.00035 3.00098 8.00035H6.58698C6.71931 7.99988 6.85018 7.97261 6.97169 7.92019C7.0932 7.86777 7.20283 7.79129 7.29398 7.69535L10.294 4.30735C10.924 3.65135 12.001 4.11635 12.001 5.04335V18.9573C12.001 19.8913 10.911 20.3523 10.285 19.6833L7.29498 16.3143C7.20357 16.2157 7.09283 16.1369 6.96965 16.0829C6.84646 16.0288 6.71348 16.0007 6.57898 16.0003H3.00098C2.44898 16.0003 2.00098 15.5343 2.00098 14.9593Z" stroke="#221D52" stroke-width="1.5" stroke-linecap="round" stroke-linejoin="round"/>
</svg>
