<svg width="48" height="48" viewBox="0 0 48 48" fill="none" xmlns="http://www.w3.org/2000/svg">
<path d="M13.9999 36.001C11.5045 36.001 9.11123 35.0528 7.34668 33.3649C5.58213 31.6771 4.59082 29.3879 4.59082 27.001C4.59082 24.614 5.58213 22.3248 7.34668 20.637C9.11123 18.9492 11.5045 18.001 13.9999 18.001C14.5893 15.3753 16.3134 13.0679 18.7931 11.5864C20.0209 10.8528 21.3972 10.3441 22.8435 10.0892C24.2897 9.83433 25.7776 9.83833 27.2221 10.101C28.6667 10.3636 30.0396 10.8798 31.2625 11.6199C32.4854 12.3601 33.5343 13.3098 34.3494 14.4148C35.1645 15.5198 35.7298 16.7585 36.013 18.0602C36.2962 19.3618 36.2917 20.7009 35.9999 22.001H37.9999C39.8564 22.001 41.6369 22.7385 42.9497 24.0512C44.2624 25.364 44.9999 27.1445 44.9999 29.001C44.9999 30.8575 44.2624 32.638 42.9497 33.9507C41.6369 35.2635 39.8564 36.001 37.9999 36.001H35.9999" stroke="#7062F3" stroke-width="2.8" stroke-linecap="round" stroke-linejoin="round"/>
<path d="M18.002 30.001L24.002 24.001M24.002 24.001L30.002 30.001M24.002 24.001V42.001" stroke="#7062F3" stroke-width="2.8" stroke-linecap="round" stroke-linejoin="round"/>
</svg>
