<svg width="24" height="24" viewBox="0 0 24 24" fill="none" xmlns="http://www.w3.org/2000/svg">
<g opacity="0.8">
<path d="M18.7676 7.69348C18.7676 5.59443 16.7025 4.11126 14.7165 4.77543C13.9284 2.8148 12.0237 1.5 9.85693 1.5C6.57495 1.5 4.09498 4.49554 4.70964 7.72465C2.90097 7.96144 1.5 9.51257 1.5 11.3848C1.5 13.4202 3.15596 15.0762 5.19141 15.0762H6.46289V21.8848C6.46289 22.2245 6.73835 22.5 7.07812 22.5H16.9219C17.2616 22.5 17.5371 22.2245 17.5371 21.8848V15.0762H18.8086C20.844 15.0762 22.5 13.4202 22.5 11.3848C22.5 9.35515 20.8425 7.6722 18.7676 7.69348ZM16.3066 21.2695H7.69336V10.1953H13.2305V12.6562C13.2305 12.996 13.5059 13.2715 13.8457 13.2715H16.3066V21.2695ZM15.4366 12.041H14.4609V11.0654L15.4366 12.041ZM18.8086 13.8457H17.5371V12.6562C17.5371 12.4905 17.4692 12.3335 17.3568 12.2211L14.2808 9.14515C14.1673 9.03158 14.01 8.96484 13.8457 8.96484H7.07812C6.73835 8.96484 6.46289 9.2403 6.46289 9.58008V13.8457H5.19141C3.83445 13.8457 2.73047 12.7417 2.73047 11.3848C2.73047 9.92986 3.99145 8.78667 5.44812 8.93716C5.89872 8.98404 6.24522 8.54144 6.08936 8.11426C5.13608 5.50226 7.08128 2.73047 9.85693 2.73047C11.708 2.73047 13.3089 3.98407 13.7501 5.779C13.851 6.18923 14.3281 6.37967 14.6841 6.14719C16.1099 5.21581 17.9556 6.57568 17.4587 8.22628C17.321 8.68385 17.7364 9.11771 18.1996 8.99979C19.7565 8.60378 21.2695 9.78323 21.2695 11.3848C21.2695 12.7417 20.1656 13.8457 18.8086 13.8457Z" fill="#828282"/>
<path d="M12.4341 15.2972C12.1946 15.0579 11.8047 15.0565 11.564 15.2972L10.3335 16.5277C10.0933 16.7679 10.0933 17.1575 10.3335 17.3977C10.5738 17.638 10.9633 17.638 11.2036 17.3977L11.3848 17.2165V19.4246C11.3848 19.7644 11.6603 20.0399 12 20.0399C12.3398 20.0399 12.6153 19.7644 12.6153 19.4246V17.2185L12.7955 17.3987C13.0357 17.639 13.4253 17.639 13.6656 17.3987C13.9058 17.1585 13.9058 16.7689 13.6656 16.5287C13.0773 15.9405 12.8121 15.6752 12.4341 15.2972Z" fill="#828282"/>
</g>
</svg>
