<svg width="340" height="220" viewBox="0 0 340 220" fill="none" xmlns="http://www.w3.org/2000/svg">
<g clip-path="url(#clip0_51_657)">
<path d="M311.269 101.659C310.329 101.658 309.399 101.46 308.541 101.078C308.341 100.989 308.15 100.881 307.972 100.755L290.613 88.5447C289.732 87.9254 289.014 87.1037 288.518 86.1489C288.022 85.1941 287.763 84.1341 287.763 83.0583V66.4064C287.763 65.3306 288.022 64.2706 288.518 63.3158C289.014 62.3609 289.732 61.5393 290.613 60.92L307.972 48.71C308.15 48.5838 308.341 48.4756 308.541 48.387C309.563 47.9328 310.683 47.741 311.799 47.8292C312.914 47.9173 313.99 48.2827 314.928 48.8919C315.867 49.5012 316.638 50.3351 317.172 51.3179C317.706 52.3006 317.985 53.4011 317.985 54.5193V94.9454C317.985 96.7253 317.278 98.4323 316.018 99.6908C314.759 100.949 313.05 101.656 311.269 101.656L311.269 101.659Z" fill="#221D52"/>
<path d="M272.419 104.933H224.004C214.127 104.925 206.122 98.5444 206.112 90.6716V58.7938C206.122 50.921 214.127 44.5408 224.004 44.5327H272.546C282.353 44.5419 290.3 50.8764 290.312 58.6931V90.6716C290.302 98.5444 282.297 104.925 272.419 104.933Z" fill="#221D52"/>
<path d="M339.968 188.583C339.977 190.202 339.341 191.757 338.202 192.908C337.063 194.058 335.513 194.709 333.893 194.718H66.5906C65.7886 194.714 64.9953 194.552 64.2559 194.241C63.5166 193.931 62.8457 193.478 62.2815 192.908C61.7174 192.338 61.271 191.663 60.9679 190.921C60.6649 190.179 60.511 189.385 60.5152 188.584V6.13454C60.5068 4.51603 61.1421 2.96044 62.2814 1.80999C63.4207 0.659539 64.9707 0.00846413 66.5905 0H333.893C334.695 0.00416866 335.488 0.166147 336.227 0.476685C336.967 0.787222 337.638 1.24024 338.202 1.80987C338.766 2.3795 339.212 3.05459 339.515 3.79659C339.818 4.53859 339.972 5.33297 339.968 6.13438V188.583Z" fill="#E6E6E6"/>
<path d="M336.815 185.596C336.815 187.169 336.189 188.678 335.076 189.791C333.963 190.903 332.453 191.528 330.879 191.528H69.7871C68.2128 191.528 66.7029 190.903 65.5897 189.791C64.4765 188.678 63.8511 187.169 63.8511 185.596V9.20643C63.8511 7.63326 64.4765 6.12453 65.5897 5.01213C66.7029 3.89973 68.2128 3.27479 69.7871 3.27479H330.89C332.463 3.27795 333.97 3.90428 335.08 5.01634C336.191 6.1284 336.815 7.63532 336.815 9.20643V185.596Z" fill="white"/>
<path d="M77.8052 10.9325H323.139C324.073 10.9325 324.969 11.3035 325.63 11.9638C326.291 12.624 326.662 13.5196 326.662 14.4533V179.664C326.662 180.598 326.291 181.493 325.63 182.154C324.969 182.814 324.073 183.185 323.139 183.185H77.8052C76.8707 183.185 75.9745 182.814 75.3137 182.154C74.653 181.493 74.2817 180.598 74.2817 179.664V14.4533C74.2817 13.5196 74.653 12.624 75.3137 11.9638C75.9745 11.3035 76.8707 10.9325 77.8052 10.9325Z" fill="#E6E6E6"/>
<path d="M80.9111 14.8945H319.767C320.702 14.8945 321.598 15.2655 322.259 15.9257C322.919 16.586 323.29 17.4815 323.29 18.4153V174.81C323.29 175.744 322.919 176.64 322.259 177.3C321.598 177.96 320.702 178.331 319.767 178.331H80.9111C79.9766 178.331 79.0804 177.96 78.4197 177.3C77.7589 176.64 77.3877 175.744 77.3877 174.81V18.4153C77.3877 17.4815 77.7589 16.586 78.4197 15.9257C79.0804 15.2655 79.9766 14.8945 80.9111 14.8945Z" fill="white"/>
<path d="M249.56 123.539C248.619 123.539 247.69 123.341 246.831 122.959C246.631 122.87 246.441 122.762 246.262 122.636L228.903 110.426C228.023 109.806 227.305 108.985 226.809 108.03C226.313 107.075 226.053 106.015 226.053 104.939V88.2873C226.053 87.2115 226.312 86.1515 226.809 85.1967C227.305 84.2418 228.023 83.4202 228.903 82.8009L246.262 70.5909C246.441 70.4647 246.631 70.3565 246.831 70.2679C247.854 69.8136 248.974 69.6219 250.089 69.7101C251.205 69.7982 252.281 70.1635 253.219 70.7728C254.157 71.3821 254.928 72.216 255.462 73.1987C255.996 74.1815 256.276 75.282 256.276 76.4002V116.826C256.276 118.606 255.568 120.313 254.309 121.572C253.049 122.83 251.341 123.537 249.56 123.537L249.56 123.539Z" fill="#221D52"/>
<path d="M210.71 126.814H162.294C152.417 126.806 144.412 120.425 144.402 112.552V80.6747C144.412 72.8018 152.417 66.4217 162.294 66.4136H210.836C220.643 66.4228 228.591 72.7573 228.602 80.574V112.552C228.592 120.425 220.587 126.806 210.71 126.814Z" fill="#221D52"/>
<path d="M296.954 168.274C304.906 168.274 311.353 161.833 311.353 153.886C311.353 145.94 304.906 139.498 296.954 139.498C289.001 139.498 282.555 145.94 282.555 153.886C282.555 161.833 289.001 168.274 296.954 168.274Z" fill="#E6E6E6"/>
<path d="M304.433 153.629L292.956 147.007C292.91 146.981 292.859 146.967 292.807 146.967C292.754 146.967 292.703 146.981 292.658 147.007C292.612 147.033 292.575 147.071 292.548 147.116C292.522 147.162 292.509 147.213 292.509 147.265V160.509C292.509 160.561 292.522 160.612 292.548 160.657C292.575 160.703 292.612 160.74 292.658 160.766C292.703 160.793 292.754 160.806 292.807 160.806C292.859 160.806 292.91 160.793 292.956 160.766L304.433 154.145C304.479 154.119 304.516 154.081 304.542 154.036C304.569 153.991 304.582 153.939 304.582 153.887C304.582 153.835 304.569 153.783 304.542 153.738C304.516 153.693 304.479 153.655 304.433 153.629L292.956 147.007C292.91 146.981 292.859 146.967 292.807 146.967C292.754 146.967 292.703 146.981 292.658 147.007C292.612 147.033 292.575 147.071 292.548 147.116C292.522 147.162 292.509 147.213 292.509 147.265V160.509C292.509 160.561 292.522 160.612 292.548 160.657C292.575 160.703 292.612 160.74 292.658 160.766C292.703 160.793 292.754 160.806 292.807 160.806C292.859 160.806 292.91 160.793 292.956 160.766L304.433 154.145C304.479 154.119 304.516 154.081 304.542 154.036C304.569 153.991 304.582 153.939 304.582 153.887C304.582 153.835 304.569 153.783 304.542 153.738C304.516 153.693 304.479 153.655 304.433 153.629Z" fill="white"/>
<path d="M279.453 213.647C279.461 215.265 278.826 216.821 277.687 217.971C276.547 219.122 274.997 219.773 273.378 219.781H6.07549C5.27349 219.777 4.48015 219.615 3.74079 219.304C3.00143 218.994 2.33052 218.541 1.76637 217.971C1.20221 217.402 0.755862 216.727 0.452802 215.985C0.149743 215.243 -0.00409 214.448 8.36045e-05 213.647V31.1978C-0.00838572 29.5793 0.626922 28.0237 1.76625 26.8733C2.90558 25.7228 4.4556 25.0717 6.07532 25.0633H273.378C274.18 25.0674 274.973 25.2294 275.712 25.5399C276.452 25.8505 277.123 26.3035 277.687 26.8731C278.251 27.4428 278.697 28.1179 279 28.8599C279.303 29.6019 279.457 30.3962 279.453 31.1976V213.647Z" fill="#E6E6E6"/>
<path d="M276.3 210.659C276.3 212.232 275.674 213.741 274.561 214.853C273.448 215.966 271.938 216.59 270.364 216.59H9.27225C7.69791 216.59 6.18805 215.966 5.07482 214.853C3.96159 213.741 3.33618 212.232 3.33618 210.659V34.2689C3.33618 32.6957 3.96159 31.187 5.07482 30.0746C6.18805 28.9622 7.69791 28.3373 9.27225 28.3373H270.376C271.948 28.3404 273.455 28.9668 274.565 30.0788C275.676 31.1909 276.3 32.6978 276.3 34.2689V210.659Z" fill="white"/>
<path d="M17.29 35.9958H262.624C263.558 35.9958 264.454 36.3667 265.115 37.027C265.776 37.6873 266.147 38.5828 266.147 39.5166V204.727C266.147 205.661 265.776 206.557 265.115 207.217C264.454 207.877 263.558 208.248 262.624 208.248H17.29C16.3556 208.248 15.4594 207.877 14.7986 207.217C14.1378 206.557 13.7666 205.661 13.7666 204.727V39.5166C13.7666 38.5828 14.1378 37.6873 14.7986 37.027C15.4594 36.3667 16.3556 35.9958 17.29 35.9958Z" fill="#E6E6E6"/>
<path d="M20.3962 39.9578H259.252C259.715 39.9578 260.173 40.0488 260.601 40.2258C261.028 40.4027 261.416 40.6621 261.744 40.989C262.071 41.3159 262.33 41.7041 262.507 42.1312C262.684 42.5584 262.776 43.0162 262.776 43.4786V199.873C262.776 200.336 262.684 200.794 262.507 201.221C262.33 201.648 262.071 202.036 261.744 202.363C261.416 202.69 261.028 202.949 260.601 203.126C260.173 203.303 259.715 203.394 259.252 203.394H20.3962C19.4618 203.394 18.5656 203.023 17.9048 202.363C17.244 201.703 16.8728 200.807 16.8728 199.873V43.4786C16.8728 42.5448 17.244 41.6493 17.9048 40.989C18.5656 40.3287 19.4618 39.9578 20.3962 39.9578Z" fill="white"/>
<path d="M189.044 148.603C188.104 148.602 187.175 148.404 186.316 148.022C186.116 147.933 185.926 147.825 185.747 147.699L168.388 135.489C167.508 134.87 166.789 134.048 166.293 133.093C165.797 132.138 165.538 131.078 165.538 130.002V113.351C165.538 112.275 165.797 111.215 166.293 110.26C166.789 109.305 167.508 108.483 168.388 107.864L185.747 95.6541C185.926 95.528 186.116 95.4198 186.316 95.3312C187.339 94.8769 188.459 94.6851 189.574 94.7733C190.69 94.8615 191.765 95.2268 192.704 95.8361C193.642 96.4453 194.413 97.2792 194.947 98.262C195.481 99.2448 195.761 100.345 195.761 101.463V141.89C195.761 143.669 195.053 145.376 193.793 146.635C192.534 147.894 190.826 148.601 189.044 148.601L189.044 148.603Z" fill="#7062F3"/>
<path d="M150.195 151.876H101.78C91.902 151.868 83.8971 145.488 83.887 137.615V105.737C83.8971 97.8643 91.902 91.4841 101.78 91.476H150.321C160.128 91.4853 168.076 97.8197 168.087 105.637V137.615C168.077 145.488 160.072 151.868 150.195 151.876Z" fill="#7062F3"/>
<path d="M236.439 193.339C244.391 193.339 250.838 186.897 250.838 178.95C250.838 171.004 244.391 164.562 236.439 164.562C228.486 164.562 222.04 171.004 222.04 178.95C222.04 186.897 228.486 193.339 236.439 193.339Z" fill="#221D52"/>
<path d="M243.918 178.691L232.44 172.07C232.395 172.044 232.344 172.03 232.291 172.03C232.239 172.03 232.188 172.044 232.142 172.07C232.097 172.096 232.06 172.133 232.033 172.179C232.007 172.224 231.993 172.275 231.993 172.328V185.571C231.993 185.623 232.007 185.675 232.033 185.72C232.06 185.765 232.097 185.803 232.142 185.829C232.188 185.855 232.239 185.869 232.291 185.869C232.344 185.869 232.395 185.855 232.44 185.829L243.918 179.207C243.963 179.181 244.001 179.144 244.027 179.098C244.053 179.053 244.067 179.002 244.067 178.949C244.067 178.897 244.053 178.846 244.027 178.8C244.001 178.755 243.963 178.718 243.918 178.691L232.44 172.07C232.395 172.044 232.344 172.03 232.291 172.03C232.239 172.03 232.188 172.044 232.142 172.07C232.097 172.096 232.06 172.133 232.033 172.179C232.007 172.224 231.993 172.275 231.993 172.328V185.571C231.993 185.623 232.007 185.675 232.033 185.72C232.06 185.765 232.097 185.803 232.142 185.829C232.188 185.855 232.239 185.869 232.291 185.869C232.344 185.869 232.395 185.855 232.44 185.829L243.918 179.207C243.963 179.181 244.001 179.144 244.027 179.098C244.053 179.053 244.067 179.002 244.067 178.949C244.067 178.897 244.053 178.846 244.027 178.8C244.001 178.755 243.963 178.718 243.918 178.691Z" fill="white"/>
<ellipse cx="88.1853" cy="92.8927" rx="34.0398" ry="34.0145" fill="#E6E6E6"/>
<ellipse cx="88.2382" cy="93.0147" rx="30.7619" ry="30.7353" fill="white"/>
<path d="M88.3843 117.359C101.797 117.359 112.67 106.494 112.67 93.0914C112.67 79.6888 101.797 68.8238 88.3843 68.8238C74.9717 68.8238 64.0986 79.6888 64.0986 93.0914C64.0986 106.494 74.9717 117.359 88.3843 117.359Z" fill="#7062F3"/>
<path d="M98.6145 91.8707L90.5102 82.0228C90.2903 81.7557 90.015 81.5395 89.7032 81.3892C89.3915 81.2389 89.0508 81.1581 88.7047 81.1523C88.3586 81.1466 88.0154 81.2161 87.6988 81.356C87.3823 81.4959 87.0999 81.7029 86.8713 81.9626L78.2047 91.8104C77.7872 92.286 77.5756 92.9077 77.6166 93.5389C77.6575 94.1702 77.9475 94.7595 78.4229 95.1772C78.8983 95.5949 79.5202 95.807 80.152 95.7669C80.7838 95.7268 81.3738 95.4377 81.7924 94.9632L86.2765 89.868V102.644C86.2765 103.277 86.5281 103.884 86.9761 104.332C87.4241 104.78 88.0317 105.031 88.6652 105.031C89.2988 105.031 89.9063 104.78 90.3543 104.332C90.8023 103.884 91.054 103.277 91.054 102.644V90.1998L94.9244 94.903C95.3269 95.3919 95.9072 95.7011 96.5377 95.7625C97.1683 95.824 97.7974 95.6326 98.2867 95.2305C98.7761 94.8284 99.0855 94.2485 99.147 93.6184C99.2084 92.9883 99.0169 92.3596 98.6145 91.8707Z" fill="white"/>
</g>
<defs>
<clipPath id="clip0_51_657">
<rect width="340" height="220" fill="white"/>
</clipPath>
</defs>
</svg>
